<svg xmlns="http://www.w3.org/2000/svg" viewBox="0 0 16 16" shape-rendering="crispEdges">
  <!-- Great Blue Heron (Queen) - Black -->
  <rect x="7" y="0" width="1" height="1" fill="#c0a010"/>
  <rect x="6" y="1" width="1" height="1" fill="#c0a010"/>
  <rect x="7" y="1" width="1" height="1" fill="#1a3858"/>
  <rect x="8" y="1" width="1" height="1" fill="#c0a010"/>
  <rect x="6" y="2" width="1" height="1" fill="#1a3858"/>
  <rect x="7" y="2" width="1" height="1" fill="#2a5070"/>
  <rect x="8" y="2" width="1" height="1" fill="#1a3858"/>
  <rect x="5" y="3" width="1" height="1" fill="#1a3858"/>
  <rect x="6" y="3" width="1" height="1" fill="#2a5070"/>
  <rect x="7" y="3" width="1" height="1" fill="#3a6888"/>
  <rect x="8" y="3" width="1" height="1" fill="#2a5070"/>
  <rect x="9" y="3" width="1" height="1" fill="#1a3858"/>
  <rect x="5" y="4" width="1" height="1" fill="#1a3858"/>
  <rect x="6" y="4" width="1" height="1" fill="#3a6888"/>
  <rect x="7" y="4" width="1" height="1" fill="#c0a060"/>
  <rect x="8" y="4" width="1" height="1" fill="#3a6888"/>
  <rect x="9" y="4" width="1" height="1" fill="#1a3858"/>
  <rect x="10" y="4" width="1" height="1" fill="#b09830"/>
  <rect x="11" y="4" width="1" height="1" fill="#908020"/>
  <rect x="12" y="4" width="1" height="1" fill="#807018"/>
  <rect x="5" y="5" width="1" height="1" fill="#1a3858"/>
  <rect x="6" y="5" width="1" height="1" fill="#2a5070"/>
  <rect x="7" y="5" width="1" height="1" fill="#2a5070"/>
  <rect x="8" y="5" width="1" height="1" fill="#2a5070"/>
  <rect x="9" y="5" width="1" height="1" fill="#1a3858"/>
  <rect x="6" y="6" width="1" height="1" fill="#1a3858"/>
  <rect x="7" y="6" width="1" height="1" fill="#908880"/>
  <rect x="8" y="6" width="1" height="1" fill="#1a3858"/>
  <rect x="6" y="7" width="1" height="1" fill="#1a3858"/>
  <rect x="7" y="7" width="1" height="1" fill="#908880"/>
  <rect x="8" y="7" width="1" height="1" fill="#1a3858"/>
  <rect x="6" y="8" width="1" height="1" fill="#1a3858"/>
  <rect x="7" y="8" width="1" height="1" fill="#908880"/>
  <rect x="8" y="8" width="1" height="1" fill="#1a3858"/>
  <rect x="5" y="9" width="1" height="1" fill="#1a3858"/>
  <rect x="6" y="9" width="1" height="1" fill="#2a5070"/>
  <rect x="7" y="9" width="1" height="1" fill="#3a6888"/>
  <rect x="8" y="9" width="1" height="1" fill="#2a5070"/>
  <rect x="9" y="9" width="1" height="1" fill="#1a3858"/>
  <rect x="4" y="10" width="1" height="1" fill="#1a3858"/>
  <rect x="5" y="10" width="1" height="1" fill="#2a5070"/>
  <rect x="6" y="10" width="1" height="1" fill="#3a6888"/>
  <rect x="7" y="10" width="1" height="1" fill="#4a7898"/>
  <rect x="8" y="10" width="1" height="1" fill="#3a6888"/>
  <rect x="9" y="10" width="1" height="1" fill="#2a5070"/>
  <rect x="10" y="10" width="1" height="1" fill="#1a3858"/>
  <rect x="4" y="11" width="1" height="1" fill="#1a3858"/>
  <rect x="5" y="11" width="1" height="1" fill="#3a6888"/>
  <rect x="6" y="11" width="1" height="1" fill="#2a5070"/>
  <rect x="7" y="11" width="1" height="1" fill="#3a6888"/>
  <rect x="8" y="11" width="1" height="1" fill="#2a5070"/>
  <rect x="9" y="11" width="1" height="1" fill="#3a6888"/>
  <rect x="10" y="11" width="1" height="1" fill="#1a3858"/>
  <rect x="5" y="12" width="1" height="1" fill="#b06818"/>
  <rect x="6" y="12" width="1" height="1" fill="#1a3858"/>
  <rect x="7" y="12" width="1" height="1" fill="#1a3858"/>
  <rect x="8" y="12" width="1" height="1" fill="#1a3858"/>
  <rect x="9" y="12" width="1" height="1" fill="#b06818"/>
  <rect x="4" y="13" width="1" height="1" fill="#b06818"/>
  <rect x="5" y="13" width="1" height="1" fill="#905010"/>
  <rect x="7" y="13" width="1" height="1" fill="#905010"/>
  <rect x="9" y="13" width="1" height="1" fill="#905010"/>
  <rect x="10" y="13" width="1" height="1" fill="#b06818"/>
</svg>
